<svg id="Layer_1" data-name="Layer 1" xmlns="http://www.w3.org/2000/svg" viewBox="0 0 55.81 7.92"><defs><style>.cls-1{fill:#fff;}</style></defs><title>proton-logo</title><g id="Layer_1-2" data-name="Layer_1"><polygon class="cls-1" points="4.96 5.93 0 3.78 0 2.58 4.96 0.44 4.96 1.84 1.5 3.16 4.96 4.54 4.96 5.93"/><polygon class="cls-1" points="8.7 5.94 8.7 4.55 12.16 3.18 8.36 1.7 8.7 0.45 13.66 2.6 13.66 3.78 8.7 5.94"/><path class="cls-1" d="M-93.18,11.85-95,19.32h-1.38l1.8-7.47Z" transform="translate(101.88 -11.4)"/><path class="cls-1" d="M-85.4,18V12.59a8.3,8.3,0,0,1,1.81-.19h.29a1.58,1.58,0,0,1,1.13.37,1.41,1.41,0,0,1,.38,1.05v1.36a1.41,1.41,0,0,1-.38,1.05,1.58,1.58,0,0,1-1.13.37h-.29a7.56,7.56,0,0,1-1-.08V18Zm2.81-2.87V13.88a.72.72,0,0,0-.82-.79h-.3a8.18,8.18,0,0,0-.88.05v2.71a7,7,0,0,0,.88.06h.3A.72.72,0,0,0-82.59,15.11Zm3.72-2.71h.16a8,8,0,0,1,1.19.09v.59h-1.26a.61.61,0,0,0-.7.69v2.77h-.8V13.75Q-80.28,12.4-78.87,12.4Zm5.47,2.71V13.88a.86.86,0,0,0-.19-.61.86.86,0,0,0-.63-.19h-.55a.85.85,0,0,0-.62.19.86.86,0,0,0-.19.61v1.23a.84.84,0,0,0,.19.61.85.85,0,0,0,.62.2h.55a.86.86,0,0,0,.63-.2A.84.84,0,0,0-73.4,15.11Zm-3,0v-1.3c0-1,.52-1.45,1.55-1.45h.7c1,0,1.54.48,1.54,1.45v1.3c0,1-.51,1.44-1.54,1.44h-.7C-75.87,16.59-76.39,16.11-76.39,15.15Zm7.17.77h.87v.58a3.29,3.29,0,0,1-.83.09h-.27a1.26,1.26,0,0,1-.92-.33,1.22,1.22,0,0,1-.33-.92V13.13h-.72v-.67h.72V11.4h.8v1.06h1.49v.67H-69.9v2.11A.6.6,0,0,0-69.22,15.92Zm5.11-.81V13.88a.86.86,0,0,0-.19-.61.86.86,0,0,0-.63-.19h-.55a.85.85,0,0,0-.62.19.86.86,0,0,0-.19.61v1.23a.84.84,0,0,0,.19.61.85.85,0,0,0,.62.2h.55a.86.86,0,0,0,.63-.2A.84.84,0,0,0-64.11,15.11Zm-3,0v-1.3c0-1,.51-1.45,1.54-1.45h.7c1,0,1.54.48,1.54,1.45v1.3c0,1-.51,1.44-1.54,1.44h-.7C-66.58,16.59-67.09,16.11-67.09,15.15Zm6.1,1.39h-.8V12.59A8.57,8.57,0,0,1-60,12.4h.28a1.57,1.57,0,0,1,1.12.37,1.41,1.41,0,0,1,.38,1.05v2.72H-59V13.89a.71.71,0,0,0-.8-.8h-.3a6.82,6.82,0,0,0-.87.06Z" transform="translate(101.88 -11.4)"/><path class="cls-1" d="M-56.59,15.79a.48.48,0,0,1,.35-.14.48.48,0,0,1,.34.14.48.48,0,0,1,.14.34.48.48,0,0,1-.14.34.48.48,0,0,1-.34.14.48.48,0,0,1-.35-.14.48.48,0,0,1-.14-.34A.48.48,0,0,1-56.59,15.79Zm5.76-2v2.6a9.3,9.3,0,0,1-1.79.17H-53a1.56,1.56,0,0,1-1-.3,1,1,0,0,1-.35-.83V15.2a1.06,1.06,0,0,1,.35-.84,1.56,1.56,0,0,1,1-.3h.31a8.45,8.45,0,0,1,1,.07v-.29a.71.71,0,0,0-.81-.79H-54v-.54a9.21,9.21,0,0,1,1.5-.11h.16a1.58,1.58,0,0,1,1.13.37A1.41,1.41,0,0,1-50.83,13.82Zm-1.67.87h-.35c-.47,0-.7.18-.7.54v.17c0,.37.23.55.7.55h.38a7.3,7.3,0,0,0,.84,0V14.75a5.94,5.94,0,0,0-.87-.06Zm3.18-1.56v-.67h3.19v.59l-2.24,2.81h2.3v.68h-3.3v-.6l2.24-2.81Z" transform="translate(101.88 -11.4)"/></g></svg>